<svg xmlns="http://www.w3.org/2000/svg" width="137.647" height="132.901" viewBox="0 0 137.647 132.901"><path d="M206.756,117.314l-4.407,4.408a22.15,22.15,0,0,1-9.834,5.707l-22.027,6.008a2.455,2.455,0,0,1-.649.087H140.39a2.517,2.517,0,0,1-2.54-2.3,2.461,2.461,0,0,1,2.456-2.625h27.654l1.342-4.922H155.157a2.517,2.517,0,0,1-2.54-2.3,2.461,2.461,0,0,1,2.456-2.625h15.572l1.342-4.922h-31.6a2.517,2.517,0,0,1-2.54-2.3,2.461,2.461,0,0,1,2.456-2.625h33.023l.143-.525a22.132,22.132,0,0,1,1.725-4.4h-5.358a2.461,2.461,0,0,1-2.461-2.461V91.684a2.461,2.461,0,0,1,2.461-2.461h18.67l4.922-4.922H160.079a2.517,2.517,0,0,1-2.54-2.3,2.461,2.461,0,0,1,2.456-2.625H194.45a2.461,2.461,0,0,1,2.3,1.6l10-10V42.461A2.461,2.461,0,0,0,204.295,40H130.461A2.461,2.461,0,0,0,128,42.461V143.367h78.756ZM179.684,49.844H194.45a2.461,2.461,0,1,1,0,4.922H179.684a2.461,2.461,0,0,1,0-4.922Zm-4.922,9.844H194.45a2.461,2.461,0,1,1,0,4.922H174.761a2.461,2.461,0,1,1,0-4.922Zm0,9.844H194.45a2.461,2.461,0,1,1,0,4.922H174.761a2.461,2.461,0,0,1,0-4.922ZM137.845,52.306a2.461,2.461,0,0,1,2.461-2.461h24.611a2.461,2.461,0,0,1,2.461,2.461V71.995a2.461,2.461,0,0,1-2.461,2.461H140.306a2.461,2.461,0,0,1-2.461-2.461Zm14.767,29.533A2.461,2.461,0,0,1,150.15,84.3h-4.922a2.461,2.461,0,1,1,0-4.922h4.922A2.461,2.461,0,0,1,152.611,81.839Zm-12.306,7.383h19.689a2.461,2.461,0,1,1,0,4.922H140.306a2.461,2.461,0,1,1,0-4.922Zm0,9.844h19.689a2.461,2.461,0,1,1,0,4.922H140.306a2.461,2.461,0,1,1,0-4.922Zm0,19.689h4.922a2.461,2.461,0,0,1,0,4.922h-4.922a2.461,2.461,0,0,1,0-4.922Z" transform="translate(-98.642 -40)" fill="rgba(255,255,255,0.03)"/><path d="M68.922,164.306a7.392,7.392,0,0,1,7.383-7.383h2.461V152H71.383A7.392,7.392,0,0,0,64,159.383v71.372h4.922Z" transform="translate(-54.331 -117.544)" fill="rgba(255,255,255,0.03)"/><path d="M119.635,429.763a7.343,7.343,0,0,1-6.6,4.081H89.582a7.343,7.343,0,0,1-6.6-4.081L80.1,424H32.57a17.254,17.254,0,0,0,17.052,14.767H152.99A17.254,17.254,0,0,0,170.042,424H122.516Z" transform="translate(-32.57 -305.866)" fill="rgba(255,255,255,0.03)"/><path d="M176,88h19.689v14.767H176Z" transform="translate(-131.875 -73.233)" fill="rgba(255,255,255,0.03)"/><path d="M208.926,428.922h23.449a2.448,2.448,0,0,0,2.2-1.36L236.358,424H204.944l1.781,3.562A2.448,2.448,0,0,0,208.926,428.922Z" transform="translate(-151.915 -305.866)" fill="rgba(255,255,255,0.03)"/><path d="M100.922,184H98.461A2.464,2.464,0,0,0,96,186.461v66.45h98.445V207.169l-4.922,4.922v33.436a2.461,2.461,0,0,1-2.461,2.461H103.383a2.461,2.461,0,0,1-2.461-2.461Z" transform="translate(-76.486 -139.7)" fill="rgba(255,255,255,0.03)"/><path d="M278.879,220.407,283.286,216H272v4.922h6.381q.245-.261.5-.515Z" transform="translate(-198.342 -161.855)" fill="rgba(255,255,255,0.03)"/><path d="M275.4,308.342l7.223-1.97-5.253-5.253Z" transform="translate(-200.697 -220.788)" fill="rgba(255,255,255,0.03)"/><path d="M436.093,138.1a6.452,6.452,0,0,0,0-9.124l-7.085-7.085a6.452,6.452,0,0,0-9.124,0l-.572.572,16.209,16.209Z" transform="translate(-300.335 -95.389)" fill="rgba(255,255,255,0.03)"/><path d="M301.067,266.5a17.253,17.253,0,0,0,5.775-2.821L290.89,247.729a17.254,17.254,0,0,0-2.821,5.775l-1.413,5.18,9.229,9.229Z" transform="translate(-208.489 -183.823)" fill="rgba(255,255,255,0.03)"/><path d="M0,0H35.1V5.52H0Z" transform="translate(91.888 66.454) rotate(-45)" fill="rgba(255,255,255,0.03)"/><path d="M318.187,173.263l-6.873,6.873,2.672,2.672,24.822-24.823-2.672-2.672-17.948,17.948Z" transform="translate(-225.561 -119.839)" fill="rgba(255,255,255,0.03)"/><path d="M0,0H35.1V3.779H0Z" transform="translate(99.27 73.838) rotate(-45)" fill="rgba(255,255,255,0.03)"/><path d="M436.922,227.313,432,232.235V282.9h4.922Z" transform="translate(-309.119 -169.688)" fill="rgba(255,255,255,0.03)"/><path d="M0,0H2.039V22.922H0Z" transform="translate(114.037 32.004) rotate(-45)" fill="rgba(255,255,255,0.03)"/></svg>