<svg id="Solid" height="512" viewBox="0 0 512 512" width="512" xmlns="http://www.w3.org/2000/svg"><path d="m384 291.313-14.326 14.327a72 72 0 0 1 -31.966 18.55l-71.6 19.528a7.98 7.98 0 0 1 -2.108.282h-95.726a8.183 8.183 0 0 1 -8.257-7.468 8 8 0 0 1 7.983-8.532h89.89l4.363-16h-45.979a8.183 8.183 0 0 1 -8.257-7.468 8 8 0 0 1 7.983-8.532h50.617l4.363-16h-102.706a8.183 8.183 0 0 1 -8.257-7.468 8 8 0 0 1 7.983-8.532h107.344l.466-1.708a71.943 71.943 0 0 1 5.608-14.292h-17.418a8 8 0 0 1 -8-8v-32a8 8 0 0 1 8-8h60.687l16-16h-108.413a8.183 8.183 0 0 1 -8.257-7.468 8 8 0 0 1 7.983-8.532h112a8 8 0 0 1 7.486 5.2l32.514-32.513v-92.687a8 8 0 0 0 -8-8h-240a8 8 0 0 0 -8 8v328h256zm-88-219.313h48a8 8 0 0 1 0 16h-48a8 8 0 0 1 0-16zm-16 32h64a8 8 0 0 1 0 16h-64a8 8 0 0 1 0-16zm0 32h64a8 8 0 0 1 0 16h-64a8 8 0 0 1 0-16zm-120-56a8 8 0 0 1 8-8h80a8 8 0 0 1 8 8v64a8 8 0 0 1 -8 8h-80a8 8 0 0 1 -8-8zm48 96a8 8 0 0 1 -8 8h-16a8 8 0 0 1 0-16h16a8 8 0 0 1 8 8zm-40 24h64a8 8 0 0 1 0 16h-64a8 8 0 0 1 0-16zm0 32h64a8 8 0 0 1 0 16h-64a8 8 0 0 1 0-16zm0 64h16a8 8 0 0 1 0 16h-16a8 8 0 0 1 0-16z"/><path d="m80 192a24.027 24.027 0 0 1 24-24h8v-16h-24a24.028 24.028 0 0 0 -24 24v232h16z"/><path d="m315.578 442.733a23.869 23.869 0 0 1 -21.467 13.267h-76.222a23.869 23.869 0 0 1 -21.467-13.267l-9.366-18.733h-154.486a56.086 56.086 0 0 0 55.43 48h336a56.086 56.086 0 0 0 55.43-48h-154.486z"/><path d="m176 88h64v48h-64z"/><path d="m217.889 440h76.222a7.956 7.956 0 0 0 7.156-4.422l5.789-11.578h-102.112l5.789 11.578a7.956 7.956 0 0 0 7.156 4.422z"/><path d="m112 184h-8a8.009 8.009 0 0 0 -8 8v216h320v-148.687l-16 16v108.687a8 8 0 0 1 -8 8h-272a8 8 0 0 1 -8-8z"/><path d="m294.361 230.325 14.326-14.325h-36.687v16h20.741q.795-.85 1.62-1.675z"/><path d="m275.402 324.598 23.479-6.403-17.076-17.076z"/><path d="m473.858 178.829a20.972 20.972 0 0 0 0-29.658l-23.029-23.029a20.972 20.972 0 0 0 -29.658 0l-1.858 1.858 52.687 52.687z"/><path d="m333.5 308.754a56.083 56.083 0 0 0 18.773-9.17l-51.855-51.855a56.083 56.083 0 0 0 -9.17 18.773l-4.592 16.839 30 30z"/><path d="m320.946 213.029h114.108v17.942h-114.108z" transform="matrix(.707 -.707 .707 .707 -46.264 332.309)"/><path d="m333.655 213.659-22.341 22.341 8.686 8.687 80.686-80.687-8.686-8.686-58.341 58.341z"/><path d="m342.946 237.858h114.108v12.284h-114.108z" transform="matrix(.707 -.707 .707 .707 -55.376 354.31)"/><path d="m448 227.313-16 16v164.687h16z"/><path d="m428.686 130.745h6.628v74.51h-6.628z" transform="matrix(.707 -.707 .707 .707 7.736 354.676)"/></svg>