<svg xmlns="http://www.w3.org/2000/svg" width="115.609" height="132.901" viewBox="0 0 115.609 132.901"><path d="M181,294.649h38.936V271.211H181Zm19.468-15.625a3.906,3.906,0,1,1-3.894,3.906A3.9,3.9,0,0,1,200.468,279.024Z" transform="translate(-142.663 -200.812)" fill="rgba(255,255,255,0.03)"/><path d="M145.023,15.71c-20.506,0-32.92-3.833-39.723-7.048-6.927-3.274-9.541-6.568-9.777-6.878a3.768,3.768,0,0,0-6.2-.3c-.227.254-3.378,3.671-11,7.059C70.973,11.813,57.868,15.71,37.2,15.71a3.9,3.9,0,0,0-3.894,3.906v62.5c0,15.9,10.026,29.749,28.995,40.057,12.889,7,27.278,10.725,28.81,10.725,1.367,0,15.609-3.552,28.81-10.726,18.968-10.308,28.995-24.16,28.995-40.057v-62.5A3.9,3.9,0,0,0,145.023,15.71ZM118.367,97.743a3.9,3.9,0,0,1-3.894,3.906H67.75a3.9,3.9,0,0,1-3.894-3.906V66.493a3.9,3.9,0,0,1,3.894-3.906h3.906V50.737a19.456,19.456,0,0,1,38.911,0,3.894,3.894,0,1,1-7.787,0,11.669,11.669,0,0,0-23.337,0V62.586h35.03a3.9,3.9,0,0,1,3.894,3.906Z" transform="translate(-33.307 0)" fill="rgba(255,255,255,0.03)"/></svg>