<svg xmlns="http://www.w3.org/2000/svg" width="117.256" height="132.901" viewBox="0 0 117.256 132.901"><g transform="translate(48.288 1.064)"><g transform="translate(0)"><path d="M281.291,58.215,229.458,6.374a7.79,7.79,0,1,0-11.019,11.015L270.28,69.227a7.786,7.786,0,0,0,11.012-11.012Z" transform="translate(-216.163 -4.1)" fill="rgba(255,255,255,0.03)"/></g></g><g transform="translate(27.867 21.52)"><path d="M156.344,82.905l-.39,1.956a83.7,83.7,0,0,1-18.46,37.39l28.2,28.2c10.583-9.032,23.463-15.89,37.21-18.641l1.959-.39Z" transform="translate(-137.494 -82.905)" fill="rgba(255,255,255,0.03)"/></g><g transform="translate(0 66.707)"><path d="M52.833,256.989l-19.274,19.27a11.679,11.679,0,0,0,0,16.521L44.57,303.792a11.68,11.68,0,0,0,16.521,0l19.272-19.272Zm2.753,30.286a3.893,3.893,0,0,1-5.506-5.506l5.506-5.506a3.893,3.893,0,0,1,5.506,5.506Z" transform="translate(-30.136 -256.989)" fill="rgba(255,255,255,0.03)"/></g><g transform="translate(41.967 89.831)"><g transform="translate(0)"><path d="M216.33,371.825l5.3-5.3a11.671,11.671,0,0,0,0-16.517l-3.934-3.937a73.748,73.748,0,0,0-6.27,4.741l4.7,4.705a3.885,3.885,0,0,1,0,5.5l-5.384,5.384-7.912-7.666-11.012,11.012,17.666,17.118a7.788,7.788,0,0,0,11.008-11.019Z" transform="translate(-191.813 -346.075)" fill="rgba(255,255,255,0.03)"/></g></g><g transform="translate(78.32)"><g transform="translate(0)"><path d="M335.758,0a3.891,3.891,0,0,0-3.894,3.894v7.787a3.894,3.894,0,1,0,7.787,0V3.894A3.891,3.891,0,0,0,335.758,0Z" transform="translate(-331.864)" fill="rgba(255,255,255,0.03)"/></g></g><g transform="translate(101.682 31.149)"><path d="M433.545,120h-7.787a3.894,3.894,0,0,0,0,7.787h7.787a3.894,3.894,0,1,0,0-7.787Z" transform="translate(-421.864 -120)" fill="rgba(255,255,255,0.03)"/></g><g transform="translate(93.894 7.787)"><path d="M406.3,31.14a3.892,3.892,0,0,0-5.506,0L393,38.928a3.893,3.893,0,0,0,5.506,5.506l7.787-7.787A3.892,3.892,0,0,0,406.3,31.14Z" transform="translate(-391.864 -30)" fill="rgba(255,255,255,0.03)"/></g></svg>