<svg xmlns="http://www.w3.org/2000/svg" width="81.765" height="132.901" viewBox="0 0 81.765 132.901"><path d="M0,452v5.182a10.4,10.4,0,0,0,10.392,10.392H71.373a10.4,10.4,0,0,0,10.392-10.392V452Zm0,0" transform="translate(0 -334.674)" fill="rgba(255,255,255,0.03)"/><path d="M71.373,0H10.392A10.4,10.4,0,0,0,0,10.392v99.147H81.765V10.392A10.4,10.4,0,0,0,71.373,0ZM29.952,72.642a3.894,3.894,0,0,1-6.173,4.747l-7.447-9.682a4.624,4.624,0,0,1,0-5.629L23.779,52.4a3.894,3.894,0,1,1,6.173,4.747l-5.961,7.75Zm17-16.772-5.97,20.247a3.893,3.893,0,1,1-7.469-2.2l5.97-20.247a3.893,3.893,0,0,1,7.469,2.2ZM32.965,17.91a3.894,3.894,0,0,1,0-7.787H48.8a3.894,3.894,0,0,1,0,7.787Zm31.429,49.8L56.947,77.39a3.894,3.894,0,0,1-6.173-4.747l5.961-7.75-5.961-7.75A3.894,3.894,0,0,1,56.947,52.4l7.447,9.682a4.622,4.622,0,0,1,0,5.629Zm0,0" transform="translate(0 0)" fill="rgba(255,255,255,0.03)"/></svg>