<svg xmlns="http://www.w3.org/2000/svg" width="144.996" height="132.901" viewBox="0 0 144.996 132.901"><g transform="translate(63.546 92.168)"><path d="M258,360.432h-2.272V346.815H230.255v13.617h-2.272a3.591,3.591,0,1,0,0,7.183h30.012a3.591,3.591,0,0,0,0-7.183Z" transform="translate(-224.391 -346.815)" fill="rgba(255,255,255,0.03)"/></g><g transform="translate(19.293 0)"><path d="M185.208,21.356H76.745a8.63,8.63,0,0,0-8.62,8.62V62.5H97.294A2.693,2.693,0,0,1,99.987,65.2V87.719h93.84V29.976A8.63,8.63,0,0,0,185.208,21.356Z" transform="translate(-68.125 -21.356)" fill="rgba(255,255,255,0.03)"/></g><g transform="translate(51.155 73.547)"><rect width="93.841" height="11.439" fill="rgba(255,255,255,0.03)"/></g><g transform="translate(0 46.533)"><rect width="45.768" height="8.081" fill="rgba(255,255,255,0.03)"/></g><g transform="translate(0 117.668)"><path d="M28,436.858a5.451,5.451,0,1,1-10.237,0H0v15.233H45.768V436.858Z" transform="translate(0 -436.858)" fill="rgba(255,255,255,0.03)"/></g><g transform="translate(0 61.796)"><rect width="45.768" height="48.688" fill="rgba(255,255,255,0.03)"/></g></svg>