<?xml version="1.0" encoding="iso-8859-1"?>
<!-- Generator: Adobe Illustrator 19.0.0, SVG Export Plug-In . SVG Version: 6.00 Build 0)  -->
<svg version="1.1" id="Layer_1" xmlns="http://www.w3.org/2000/svg" xmlns:xlink="http://www.w3.org/1999/xlink" x="0px" y="0px"
	 viewBox="0 0 512.003 512.003" style="enable-background:new 0 0 512.003 512.003;" xml:space="preserve">
<g>
	<g>
		<path d="M343.052,394.897h-8.024v-48.082h-89.931v48.082h-8.024c-7.004,0-12.682,5.679-12.682,12.682s5.678,12.681,12.682,12.681
			h105.978c7.004,0,12.681-5.679,12.681-12.681S350.056,394.897,343.052,394.897z"/>
	</g>
</g>
<g>
	<g>
		<path d="M481.562,21.356H98.563c-16.784,0-30.438,13.655-30.438,30.439v114.856h103c5.253,0,9.511,4.257,9.511,9.511v79.532H512
			V51.795C512,35.011,498.345,21.356,481.562,21.356z"/>
	</g>
</g>
<g>
	<g>
		<rect x="180.635" y="281.061" width="331.367" height="40.394"/>
	</g>
</g>
<g>
	<g>
		<rect y="185.671" width="161.613" height="28.536"/>
	</g>
</g>
<g>
	<g>
		<path d="M98.881,436.858c0.746,2.052,1.173,4.256,1.173,6.565c0,10.63-8.617,19.247-19.247,19.247s-19.247-8.617-19.247-19.247
			c0-2.309,0.427-4.513,1.173-6.565H0v53.789h161.614v-53.789H98.881z"/>
	</g>
</g>
<g>
	<g>
		<rect y="239.567" width="161.613" height="171.923"/>
	</g>
</g>
<g>
</g>
<g>
</g>
<g>
</g>
<g>
</g>
<g>
</g>
<g>
</g>
<g>
</g>
<g>
</g>
<g>
</g>
<g>
</g>
<g>
</g>
<g>
</g>
<g>
</g>
<g>
</g>
<g>
</g>
</svg>
