<svg id="Capa_1" enable-background="new 0 0 512 512" height="512" viewBox="0 0 512 512" width="512" xmlns="http://www.w3.org/2000/svg"><path d="m512 158.533h-512v298.301c0 30.419 24.748 55.166 55.168 55.166h401.664c30.42 0 55.168-24.747 55.168-55.166zm-144.6 160.666c0 52.565-42.766 95.332-95.332 95.334-.002 0-.002 0-.002 0-20.881-.001-40.213-6.755-55.934-18.185l-45.926 45.925c-2.93 2.93-6.768 4.393-10.607 4.393-3.838 0-7.678-1.465-10.605-4.393-5.859-5.858-5.857-15.356 0-21.213l45.926-45.924c-11.432-15.722-18.186-35.054-18.186-55.934 0-52.567 42.766-95.334 95.332-95.334 52.569-.001 95.334 42.765 95.334 95.331z"/><path d="m272.066 384.533c-36.023-.002-65.332-29.31-65.332-65.332 0-36.025 29.309-65.334 65.332-65.334 36.025 0 65.334 29.308 65.334 65.332s-29.308 65.332-65.334 65.334z"/><path d="m456.832 0h-401.664c-30.42 0-55.168 24.748-55.168 55.168v73.365h512v-73.365c0-30.42-24.748-55.168-55.168-55.168zm-366.965 74.868c-2.791 2.8-6.65 4.399-10.6 4.399-3.951 0-7.82-1.6-10.611-4.399-2.789-2.79-4.389-6.65-4.389-10.601s1.6-7.819 4.389-10.609c2.791-2.79 6.66-4.391 10.611-4.391 3.939 0 7.809 1.601 10.6 4.391 2.801 2.79 4.4 6.659 4.4 10.609s-1.599 7.811-4.4 10.601zm64.27 0c-2.789 2.8-6.66 4.399-10.609 4.399-3.939 0-7.811-1.6-10.6-4.399-2.791-2.79-4.391-6.65-4.391-10.601s1.6-7.819 4.391-10.609c2.789-2.79 6.66-4.391 10.6-4.391 3.949 0 7.82 1.601 10.609 4.391 2.791 2.79 4.4 6.659 4.4 10.609s-1.609 7.811-4.4 10.601zm64.269 0c-2.789 2.8-6.66 4.399-10.609 4.399s-7.811-1.6-10.609-4.399c-2.791-2.79-4.391-6.65-4.391-10.601s1.6-7.819 4.391-10.609c2.799-2.79 6.66-4.391 10.609-4.391s7.82 1.601 10.609 4.391c2.791 2.79 4.391 6.659 4.391 10.609s-1.6 7.811-4.391 10.601zm214.326 4.398h-160.666c-8.285 0-15-6.716-15-15s6.715-15 15-15h160.666c8.285 0 15 6.716 15 15s-6.714 15-15 15z"/></svg>