<svg xmlns="http://www.w3.org/2000/svg" width="132.901" height="132.901" viewBox="0 0 132.901 132.901"><path d="M132.9,158.533H0v77.43a14.336,14.336,0,0,0,14.32,14.32H118.58a14.336,14.336,0,0,0,14.32-14.32Zm-37.534,41.7a24.775,24.775,0,0,1-24.745,24.746h0a24.613,24.613,0,0,1-14.519-4.72L44.181,232.184a3.893,3.893,0,0,1-5.506-5.506L50.6,214.757a24.741,24.741,0,1,1,44.771-14.52Z" transform="translate(0 -117.382)" fill="rgba(255,255,255,0.03)"/><path d="M223.692,287.784a16.959,16.959,0,1,1,16.959-16.959A16.978,16.978,0,0,1,223.692,287.784Z" transform="translate(-153.072 -187.97)" fill="rgba(255,255,255,0.03)"/><path d="M118.58,0H14.32A14.336,14.336,0,0,0,0,14.32V33.363H132.9V14.32A14.336,14.336,0,0,0,118.58,0ZM23.327,19.434a3.888,3.888,0,1,1,1.142-2.752A3.908,3.908,0,0,1,23.327,19.434Zm16.683,0a3.888,3.888,0,1,1,1.142-2.752A3.913,3.913,0,0,1,40.01,19.434Zm16.682,0a3.894,3.894,0,1,1,1.14-2.752A3.913,3.913,0,0,1,56.692,19.434Zm55.633,1.142h-41.7a3.894,3.894,0,1,1,0-7.787h41.7a3.894,3.894,0,1,1,0,7.787Z" transform="translate(0 0)" fill="rgba(255,255,255,0.03)"/></svg>