<svg id="Capa_1" enable-background="new 0 0 609.619 609.619" height="512" viewBox="0 0 609.619 609.619" width="512" xmlns="http://www.w3.org/2000/svg"><g><g id="Page-1_73_"><g id="_x30_74---Contactless-Payment"><path id="Rectangle_77_" clip-rule="evenodd" d="m252.256 441.448h21.032v21.021h-21.032z" fill-rule="evenodd"/><path id="Shape_136_" d="m273.277 94.596h-210.213c-5.805 0-10.511 4.706-10.511 10.511v147.149c0 5.805 4.706 10.511 10.511 10.511h210.213c5.805 0 10.511-4.706 10.511-10.511v-147.149c0-5.805-4.706-10.511-10.511-10.511zm-44.344 38.101-84.085 105.107c-1.87 2.333-4.645 3.758-7.631 3.92l-.578.021c-2.787-.001-5.46-1.108-7.431-3.08l-21.021-21.021c-3.983-4.124-3.926-10.68.128-14.734s10.61-4.111 14.734-.128l12.718 12.718 76.728-95.941c3.628-4.534 10.244-5.268 14.778-1.64s5.268 10.244 1.64 14.778z"/><g clip-rule="evenodd" fill-rule="evenodd"><path id="Rectangle_76_" d="m157.66 336.341h21.021c5.805 0 10.511 4.706 10.511 10.511v21.021c0 5.805-4.706 10.511-10.511 10.511h-21.021c-5.805 0-10.511-4.706-10.511-10.511v-21.021c0-5.805 4.706-10.511 10.511-10.511z"/><path id="Rectangle_75_" d="m252.256 357.363h21.032v21.021h-21.032z"/><path id="Rectangle_74_" d="m63.064 525.533h21.032v21.021h-21.032z"/><path id="Rectangle_73_" d="m157.66 441.448h21.032v21.021h-21.032z"/></g><path id="Shape_135_" d="m283.788 0h-231.235c-29.024 0-52.553 23.529-52.553 52.553v504.512c0 13.938 5.537 27.305 15.393 37.161s23.223 15.393 37.161 15.393h231.235c29.024 0 52.553-23.529 52.553-52.553v-504.513c0-13.938-5.537-27.305-15.393-37.161s-23.223-15.392-37.161-15.392zm-199.703 31.532h168.171c5.805 0 10.511 4.706 10.511 10.511s-4.706 10.511-10.511 10.511h-168.171c-5.805 0-10.511-4.706-10.511-10.511s4.706-10.511 10.511-10.511zm21.022 515.023c0 11.61-9.412 21.021-21.021 21.021h-21.022c-11.61 0-21.021-9.412-21.021-21.021v-21.021c0-11.61 9.412-21.021 21.021-21.021h21.021c11.61 0 21.021 9.412 21.021 21.021v21.021zm0-84.086c0 11.61-9.412 21.021-21.021 21.021h-21.022c-11.61 0-21.021-9.412-21.021-21.021v-21.021c0-11.61 9.412-21.021 21.021-21.021h21.021c11.61 0 21.021 9.412 21.021 21.021v21.021zm0-84.085c0 11.61-9.412 21.021-21.021 21.021h-21.022c-11.61 0-21.021-9.412-21.021-21.021v-21.021c0-11.61 9.412-21.021 21.021-21.021h21.021c11.61 0 21.021 9.412 21.021 21.021v21.021zm94.596 168.171c0 11.61-9.412 21.021-21.021 21.021h-21.022c-11.61 0-21.021-9.412-21.021-21.021v-21.021c0-11.61 9.412-21.021 21.021-21.021h21.021c11.61 0 21.021 9.412 21.021 21.021v21.021zm0-84.086c0 11.61-9.412 21.021-21.021 21.021h-21.022c-11.61 0-21.021-9.412-21.021-21.021v-21.021c0-11.61 9.412-21.021 21.021-21.021h21.021c11.61 0 21.021 9.412 21.021 21.021v21.021zm10.51-94.596c0 17.415-14.117 31.532-31.532 31.532h-21.021c-17.415 0-31.532-14.117-31.532-31.532v-21.021c0-17.415 14.117-31.532 31.532-31.532h21.021c17.415 0 31.532 14.117 31.532 31.532zm84.086 178.682c0 11.61-9.412 21.021-21.021 21.021h-21.021c-11.61 0-21.021-9.412-21.021-21.021v-21.021c0-11.61 9.412-21.021 21.021-21.021h21.021c11.61 0 21.021 9.412 21.021 21.021zm0-84.086c0 11.61-9.412 21.021-21.021 21.021h-21.021c-11.61 0-21.021-9.412-21.021-21.021v-21.021c0-11.61 9.412-21.021 21.021-21.021h21.021c11.61 0 21.021 9.412 21.021 21.021zm0-84.085c0 11.61-9.412 21.021-21.021 21.021h-21.021c-11.61 0-21.021-9.412-21.021-21.021v-21.021c0-11.61 9.412-21.021 21.021-21.021h21.021c11.61 0 21.021 9.412 21.021 21.021zm10.51-126.128c0 17.415-14.117 31.532-31.532 31.532h-210.213c-17.415 0-31.532-14.117-31.532-31.532v-147.149c0-17.415 14.117-31.532 31.532-31.532h210.213c17.415 0 31.532 14.117 31.532 31.532z"/><path id="Rectangle_72_" clip-rule="evenodd" d="m63.064 441.448h21.032v21.021h-21.032z" fill-rule="evenodd"/><path id="Rectangle_71_" clip-rule="evenodd" d="m157.66 525.533h21.032v21.021h-21.032z" fill-rule="evenodd"/><path id="Rectangle_70_" clip-rule="evenodd" d="m63.064 357.363h21.032v21.021h-21.032z" fill-rule="evenodd"/><path id="Rectangle_69_" clip-rule="evenodd" d="m252.256 525.533h21.032v21.021h-21.032z" fill-rule="evenodd"/><path id="Shape_134_" d="m578.087 252.256h-168.171c-17.415 0-31.532 14.117-31.532 31.532v294.299c0 17.415 14.117 31.532 31.532 31.532h168.171c17.415 0 31.532-14.117 31.532-31.532v-294.299c0-17.415-14.118-31.532-31.532-31.532zm-168.171 42.043c0-5.805 4.706-10.511 10.511-10.511s10.511 4.706 10.511 10.511v42.043c0 5.805-4.706 10.511-10.511 10.511s-10.511-4.706-10.511-10.511zm0 84.085c0-5.805 4.706-10.511 10.511-10.511s10.511 4.706 10.511 10.511v21.021c0 5.805-4.706 10.511-10.511 10.511s-10.511-4.706-10.511-10.511zm73.575 168.171c0 11.61-9.412 21.021-21.021 21.021h-31.532c-11.61 0-21.021-9.412-21.021-21.021v-31.532c0-11.61 9.412-21.021 21.021-21.021h31.532c11.61 0 21.021 9.412 21.021 21.021zm42.042 10.51c0 5.805-4.706 10.511-10.511 10.511s-10.511-4.706-10.511-10.511v-31.532c0-5.805 4.706-10.511 10.511-10.511s10.511 4.706 10.511 10.511zm0-73.574c0 5.805-4.706 10.511-10.511 10.511s-10.511-4.706-10.511-10.511v-31.532c0-5.805 4.706-10.511 10.511-10.511s10.511 4.706 10.511 10.511zm0-73.575c0 5.805-4.706 10.511-10.511 10.511s-10.511-4.706-10.511-10.511v-31.532c0-5.805 4.706-10.511 10.511-10.511s10.511 4.706 10.511 10.511zm0-73.575c0 5.805-4.706 10.511-10.511 10.511s-10.511-4.706-10.511-10.511v-31.532c0-5.805 4.706-10.511 10.511-10.511s10.511 4.706 10.511 10.511zm42.043 220.724c0 5.805-4.706 10.511-10.511 10.511s-10.511-4.706-10.511-10.511v-147.149c0-5.805 4.706-10.511 10.511-10.511s10.511 4.706 10.511 10.511z"/><path id="Rectangle_68_" clip-rule="evenodd" d="m430.937 515.023h31.532v31.532h-31.532z" fill-rule="evenodd"/><path id="Path_545_" clip-rule="evenodd" d="m547.763 194.079c1.694 3.417 5.107 5.648 8.916 5.829 3.81.182 7.419-1.715 9.43-4.955 2.012-3.24 2.11-7.316.258-10.65-17.167-29.513-48.734-47.669-82.877-47.669s-65.709 18.157-82.877 47.669c-1.853 3.334-1.754 7.409.258 10.65 2.012 3.24 5.621 5.136 9.43 4.955s7.222-2.413 8.916-5.829c13.533-22.594 37.936-36.423 64.273-36.423 26.338.001 50.74 13.829 64.273 36.423z" fill-rule="evenodd"/><path id="Path_544_" clip-rule="evenodd" d="m387.392 163.073c17.322-28.831 55.044-47.456 96.099-47.456s78.777 18.625 96.099 47.456c3.04 4.858 9.412 6.385 14.324 3.433s6.554-9.295 3.692-14.259c-21.358-35.579-65.082-57.651-114.114-57.651s-92.757 22.072-114.114 57.651c-2.863 4.965-1.221 11.308 3.692 14.259 4.91 2.952 11.282 1.425 14.322-3.433z" fill-rule="evenodd"/><path id="Path_543_" clip-rule="evenodd" d="m483.491 178.681c-19.124-.387-36.881 9.879-46.089 26.645-2.536 5.115-.526 11.318 4.528 13.974 5.054 2.655 11.303.791 14.076-4.199 5.857-9.568 16.267-15.402 27.485-15.402s21.629 5.834 27.485 15.402c1.694 3.417 5.107 5.648 8.916 5.829 3.81.182 7.419-1.715 9.43-4.955 2.012-3.24 2.11-7.316.258-10.65-9.208-16.765-26.965-27.03-46.089-26.644z" fill-rule="evenodd"/></g></g></g></svg>