<svg xmlns="http://www.w3.org/2000/svg" width="132.901" height="132.901" viewBox="0 0 132.901 132.901"><g transform="translate(0)"><path d="M252.256,441.448h4.585v4.583h-4.585Z" transform="translate(-197.263 -345.21)" fill="rgba(255,255,255,0.03)" fill-rule="evenodd"/><path d="M100.672,94.6H54.844a2.291,2.291,0,0,0-2.291,2.291v32.079a2.291,2.291,0,0,0,2.291,2.291h45.828a2.291,2.291,0,0,0,2.291-2.291V96.887A2.291,2.291,0,0,0,100.672,94.6ZM91,102.9,72.674,125.816a2.291,2.291,0,0,1-1.664.855l-.126,0a2.291,2.291,0,0,1-1.62-.671l-4.583-4.583a2.291,2.291,0,0,1,3.24-3.24l2.773,2.773,16.727-20.916A2.292,2.292,0,0,1,91,102.9Z" transform="translate(-41.096 -73.974)" fill="rgba(255,255,255,0.03)"/><g transform="translate(13.748 73.324)"><path d="M149.44,336.341h4.583a2.291,2.291,0,0,1,2.291,2.291v4.583a2.291,2.291,0,0,1-2.291,2.291H149.44a2.291,2.291,0,0,1-2.291-2.291v-4.583A2.291,2.291,0,0,1,149.44,336.341Z" transform="translate(-128.818 -336.341)" fill="rgba(255,255,255,0.03)" fill-rule="evenodd"/><path d="M252.256,357.363h4.585v4.583h-4.585Z" transform="translate(-211.011 -352.78)" fill="rgba(255,255,255,0.03)" fill-rule="evenodd"/><path d="M63.064,525.533h4.585v4.583H63.064Z" transform="translate(-63.064 -484.288)" fill="rgba(255,255,255,0.03)" fill-rule="evenodd"/><path d="M157.66,441.448h4.585v4.583H157.66Z" transform="translate(-137.038 -418.534)" fill="rgba(255,255,255,0.03)" fill-rule="evenodd"/></g><path d="M61.867,0H11.457A11.457,11.457,0,0,0,0,11.457V121.443A11.457,11.457,0,0,0,11.457,132.9H61.868a11.457,11.457,0,0,0,11.457-11.457V11.457A11.457,11.457,0,0,0,61.867,0ZM18.331,6.874H54.993a2.291,2.291,0,0,1,0,4.583H18.331a2.291,2.291,0,1,1,0-4.583Zm4.583,112.278a4.583,4.583,0,0,1-4.583,4.583H13.748a4.583,4.583,0,0,1-4.583-4.583v-4.583a4.583,4.583,0,0,1,4.583-4.583h4.583a4.583,4.583,0,0,1,4.583,4.583v4.583Zm0-18.331a4.583,4.583,0,0,1-4.583,4.583H13.748a4.583,4.583,0,0,1-4.583-4.583V96.238a4.583,4.583,0,0,1,4.583-4.583h4.583a4.583,4.583,0,0,1,4.583,4.583v4.583Zm0-18.331a4.583,4.583,0,0,1-4.583,4.583H13.748A4.583,4.583,0,0,1,9.166,82.49V77.907a4.583,4.583,0,0,1,4.583-4.583h4.583a4.583,4.583,0,0,1,4.583,4.583V82.49Zm20.622,36.662a4.583,4.583,0,0,1-4.583,4.583H34.371a4.583,4.583,0,0,1-4.583-4.583v-4.583a4.583,4.583,0,0,1,4.583-4.583h4.583a4.583,4.583,0,0,1,4.583,4.583v4.583Zm0-18.331a4.583,4.583,0,0,1-4.583,4.583H34.371a4.583,4.583,0,0,1-4.583-4.583V96.238a4.583,4.583,0,0,1,4.583-4.583h4.583a4.583,4.583,0,0,1,4.583,4.583v4.583ZM45.828,80.2a6.874,6.874,0,0,1-6.874,6.874H34.371A6.874,6.874,0,0,1,27.5,80.2V75.616a6.874,6.874,0,0,1,6.874-6.874h4.583a6.874,6.874,0,0,1,6.874,6.874Zm18.331,38.954a4.583,4.583,0,0,1-4.583,4.583H54.993a4.583,4.583,0,0,1-4.583-4.583v-4.583a4.583,4.583,0,0,1,4.583-4.583h4.583a4.583,4.583,0,0,1,4.583,4.583Zm0-18.331a4.583,4.583,0,0,1-4.583,4.583H54.993a4.583,4.583,0,0,1-4.583-4.583V96.238a4.583,4.583,0,0,1,4.583-4.583h4.583a4.583,4.583,0,0,1,4.583,4.583Zm0-18.331a4.583,4.583,0,0,1-4.583,4.583H54.993a4.583,4.583,0,0,1-4.583-4.583V77.907a4.583,4.583,0,0,1,4.583-4.583h4.583a4.583,4.583,0,0,1,4.583,4.583Zm2.291-27.5a6.874,6.874,0,0,1-6.874,6.874H13.748a6.874,6.874,0,0,1-6.874-6.874V22.914a6.874,6.874,0,0,1,6.874-6.874H59.576a6.874,6.874,0,0,1,6.874,6.874Z" transform="translate(0)" fill="rgba(255,255,255,0.03)"/><path d="M63.064,441.448h4.585v4.583H63.064Z" transform="translate(-49.316 -345.21)" fill="rgba(255,255,255,0.03)" fill-rule="evenodd"/><path d="M157.66,525.533h4.585v4.583H157.66Z" transform="translate(-123.289 -410.964)" fill="rgba(255,255,255,0.03)" fill-rule="evenodd"/><path d="M63.064,357.363h4.585v4.583H63.064Z" transform="translate(-49.316 -279.456)" fill="rgba(255,255,255,0.03)" fill-rule="evenodd"/><path d="M252.256,525.533h4.585v4.583h-4.585Z" transform="translate(-197.263 -410.964)" fill="rgba(255,255,255,0.03)" fill-rule="evenodd"/><path d="M421.92,252.256H385.258a6.874,6.874,0,0,0-6.874,6.874v64.159a6.874,6.874,0,0,0,6.874,6.874H421.92a6.874,6.874,0,0,0,6.874-6.874V259.13A6.874,6.874,0,0,0,421.92,252.256Zm-36.662,9.166a2.291,2.291,0,0,1,4.583,0v9.166a2.291,2.291,0,0,1-4.583,0Zm0,18.331a2.291,2.291,0,0,1,4.583,0v4.583a2.291,2.291,0,0,1-4.583,0Zm16.04,36.662A4.583,4.583,0,0,1,396.715,321h-6.874a4.583,4.583,0,0,1-4.583-4.583v-6.874a4.583,4.583,0,0,1,4.583-4.583h6.874a4.583,4.583,0,0,1,4.583,4.583Zm9.165,2.291a2.291,2.291,0,1,1-4.583,0v-6.874a2.291,2.291,0,1,1,4.583,0Zm0-16.04a2.291,2.291,0,1,1-4.583,0v-6.874a2.291,2.291,0,1,1,4.583,0Zm0-16.04a2.291,2.291,0,1,1-4.583,0v-6.874a2.291,2.291,0,0,1,4.583,0Zm0-16.04a2.291,2.291,0,1,1-4.583,0v-6.874a2.291,2.291,0,1,1,4.583,0Zm9.166,48.119a2.291,2.291,0,1,1-4.583,0V286.627a2.291,2.291,0,0,1,4.583,0Z" transform="translate(-295.894 -197.263)" fill="rgba(255,255,255,0.03)"/><path d="M430.937,515.023h6.874V521.9h-6.874Z" transform="translate(-336.99 -402.745)" fill="rgba(255,255,255,0.03)" fill-rule="evenodd"/><path d="M431.658,149.157a2.291,2.291,0,1,0,4.056-2.131,20.9,20.9,0,0,0-36.135,0,2.291,2.291,0,1,0,4.056,2.131,16.333,16.333,0,0,1,28.024,0Z" transform="translate(-312.242 -106.847)" fill="rgba(255,255,255,0.03)" fill-rule="evenodd"/><path d="M372.2,109.524c3.776-6.285,12-10.346,20.95-10.346s17.174,4.06,20.95,10.346a2.291,2.291,0,0,0,3.928-2.36C413.377,99.408,403.844,94.6,393.155,94.6s-20.222,4.812-24.878,12.568a2.291,2.291,0,0,0,3.927,2.36Z" transform="translate(-287.751 -73.974)" fill="rgba(255,255,255,0.03)" fill-rule="evenodd"/><path d="M446.593,178.673a11.2,11.2,0,0,0-10.048,5.809,2.291,2.291,0,0,0,4.056,2.131,7.025,7.025,0,0,1,11.984,0,2.291,2.291,0,1,0,4.056-2.131A11.205,11.205,0,0,0,446.593,178.673Z" transform="translate(-341.189 -139.719)" fill="rgba(255,255,255,0.03)" fill-rule="evenodd"/></g></svg>