<svg xmlns="http://www.w3.org/2000/svg" width="140.491" height="132.901" viewBox="0 0 140.491 132.901"><path d="M199.225,138.706a19.132,19.132,0,0,0-.152-5.913,2.47,2.47,0,0,1,.72-2.229l1.575-1.511-1.428-3.262-2.17.159a2.473,2.473,0,0,1-2.169-1,16.835,16.835,0,0,0-4.219-4.016,2.474,2.474,0,0,1-1.1-2.13l.064-2.165-3.305-1.277-1.4,1.618a2.473,2.473,0,0,1-2.19.836,19.1,19.1,0,0,0-5.914.152,2.467,2.467,0,0,1-2.229-.72l-1.511-1.575-3.263,1.428.159,2.169a2.47,2.47,0,0,1-.994,2.169,16.865,16.865,0,0,0-4.018,4.219,2.489,2.489,0,0,1-2.129,1.1l-2.166-.064L160.117,130l1.618,1.4a2.473,2.473,0,0,1,.836,2.19,19.133,19.133,0,0,0,.152,5.913,2.471,2.471,0,0,1-.72,2.229l-1.575,1.51,1.428,3.264,2.17-.159a2.478,2.478,0,0,1,2.169,1,16.877,16.877,0,0,0,4.219,4.016,2.473,2.473,0,0,1,1.1,2.129l-.064,2.165,3.305,1.277,1.395-1.618a2.473,2.473,0,0,1,2.19-.836,19.1,19.1,0,0,0,5.913-.154,2.477,2.477,0,0,1,2.229.72l1.511,1.576,3.263-1.429-.159-2.169a2.472,2.472,0,0,1,.994-2.169,16.835,16.835,0,0,0,4.016-4.219,2.46,2.46,0,0,1,2.13-1.1l2.165.064,1.277-3.305-1.618-1.4A2.471,2.471,0,0,1,199.225,138.706ZM180.9,149.413a13.266,13.266,0,1,1,13.266-13.267A13.267,13.267,0,0,1,180.9,149.413Zm0,0" transform="translate(-110.653 -79.845)" fill="rgba(255,255,255,0.03)"/><path d="M208.766,155.688a8.324,8.324,0,1,0,8.323,8.323A8.324,8.324,0,0,0,208.766,155.688Zm0,0" transform="translate(-138.52 -107.71)" fill="rgba(255,255,255,0.03)"/><path d="M132.842,47.51a25.678,25.678,0,0,0-18.3-7.578c-.676,0-1.372.007-2.08.043A41.916,41.916,0,0,0,70.654.383a41.462,41.462,0,0,0-25.462,8.64A42.266,42.266,0,0,0,30.842,29.275,36.781,36.781,0,0,0,0,65.617c0,.031,0,.059,0,.089v.086c0,.039,0,.019,0,.058A29.763,29.763,0,0,0,29.779,95.571H56.344v6.179H45.782a2.354,2.354,0,0,0-2.412,2.392v10.425a8.155,8.155,0,0,0-3.8,2.234,8.833,8.833,0,1,0,12.455.087h.029a8.29,8.29,0,0,0-3.741-2.321v-7.874H58.729a2.616,2.616,0,0,0,2.558-2.551v-8.57h6.487v20.423a8.821,8.821,0,1,0,4.943,0V95.571H79.2v8.57a2.615,2.615,0,0,0,2.558,2.551H92.18v7.874a8.29,8.29,0,0,0-3.741,2.321h.014a8.807,8.807,0,1,0,12.469-.083,8.152,8.152,0,0,0-3.8-2.237V104.141a2.354,2.354,0,0,0-2.412-2.392H84.148V95.571h26.565a29.762,29.762,0,0,0,29.778-29.719,2.017,2.017,0,0,0-.077-.556,25.832,25.832,0,0,0-7.571-17.786ZM96.266,62.984l-2.534,6.561a2.48,2.48,0,0,1-2.379,1.581l-2.6-.076a21.7,21.7,0,0,1-3.288,3.45l.192,2.608a2.469,2.469,0,0,1-1.473,2.445l-6.446,2.82a2.472,2.472,0,0,1-2.774-.554L73.15,79.927a24.034,24.034,0,0,1-4.75.123l-1.692,1.962a2.475,2.475,0,0,1-2.762.691l-6.561-2.533a2.472,2.472,0,0,1-1.58-2.38l.076-2.6a21.756,21.756,0,0,1-3.451-3.287l-2.607.192a2.468,2.468,0,0,1-2.446-1.473l-2.82-6.446a2.471,2.471,0,0,1,.554-2.774L47,59.588a24.034,24.034,0,0,1-.123-4.75l-1.962-1.693a2.472,2.472,0,0,1-.691-2.761l2.533-6.561a2.468,2.468,0,0,1,2.38-1.581l2.6.076a21.756,21.756,0,0,1,3.287-3.451l-.192-2.607a2.472,2.472,0,0,1,1.475-2.445L62.752,31a2.472,2.472,0,0,1,2.774.553l1.815,1.893a24.058,24.058,0,0,1,4.752-.123l1.692-1.962a2.475,2.475,0,0,1,2.762-.691L83.109,33.2a2.468,2.468,0,0,1,1.581,2.379l-.078,2.595a21.818,21.818,0,0,1,3.451,3.288l2.607-.192a2.469,2.469,0,0,1,2.446,1.476l2.82,6.446a2.472,2.472,0,0,1-.553,2.774L93.489,53.78a24.05,24.05,0,0,1,.123,4.751l1.961,1.693a2.471,2.471,0,0,1,.691,2.76Zm0,0" transform="translate(0 -0.383)" fill="rgba(255,255,255,0.03)"/></svg>