<svg height="454pt" viewBox="0 -12 454.768 454" width="454pt" xmlns="http://www.w3.org/2000/svg"><path d="m286.710938 190.914062c.828124-6.367187.664062-12.824218-.492188-19.140624-.484375-2.644532.390625-5.355469 2.332031-7.214844l5.097657-4.890625-4.621094-10.558594-7.023438.515625c-2.738281.199219-5.386718-1.015625-7.019531-3.222656-3.761719-5.09375-8.382813-9.492188-13.65625-13-2.292969-1.53125-3.640625-4.136719-3.558594-6.894532l.207031-7.007812-10.699218-4.132812-4.515625 5.238281c-1.757813 2.035156-4.421875 3.054687-7.089844 2.707031-6.367187-.832031-12.828125-.664062-19.144531.492188-2.644532.488281-5.355469-.390626-7.214844-2.332032l-4.890625-5.097656-10.5625 4.621094.515625 7.019531c.203125 2.738281-1.011719 5.386719-3.21875 7.019531-5.09375 3.761719-9.496094 8.382813-13.007812 13.65625-1.535157 2.285156-4.136719 3.628906-6.890626 3.558594l-7.011718-.207031-4.128906 10.703125 5.238281 4.515625c2.035156 1.757812 3.054687 4.421875 2.707031 7.089843-.828125 6.367188-.664062 12.824219.492188 19.140626.484374 2.644531-.390626 5.351562-2.332032 7.214843l-5.097656 4.886719 4.621094 10.566406 7.023437-.515625c2.738281-.199219 5.382813 1.019531 7.019531 3.222657 3.761719 5.089843 8.382813 9.488281 13.65625 13 2.292969 1.527343 3.636719 4.132812 3.558594 6.890624l-.207031 7.007813 10.699219 4.132813 4.515625-5.238282c1.757812-2.035156 4.421875-3.054687 7.089843-2.707031 6.367188.828125 12.824219.660156 19.140626-.5 2.644531-.480469 5.351562.394531 7.214843 2.332031l4.890625 5.101563 10.5625-4.625-.515625-7.019531c-.203125-2.738282 1.015625-5.386719 3.21875-7.019532 5.09375-3.761718 9.492188-8.382812 13-13.65625 1.527344-2.300781 4.132813-3.648437 6.894531-3.558594l7.007813.207032 4.132813-10.699219-5.238282-4.519531c-2.03125-1.757813-3.046875-4.417969-2.699218-7.082032zm-59.324219 34.660157c-23.71875 0-42.945313-19.226563-42.945313-42.945313 0-23.714844 19.226563-42.941406 42.945313-42.941406s42.941406 19.226562 42.941406 42.941406c-.027344 23.707032-19.238281 42.917969-42.941406 42.945313zm0 0"/><path d="m227.386719 155.6875c-14.878907 0-26.945313 12.0625-26.945313 26.941406s12.0625 26.945313 26.945313 26.945313c14.878906 0 26.941406-12.0625 26.941406-26.945313-.015625-14.871094-12.070313-26.925781-26.941406-26.941406zm0 0"/><path d="m430.011719 152.933594c-15.671875-15.769532-37.003907-24.605469-59.234375-24.53125-2.1875 0-4.441406.023437-6.734375.140625-3.988281-71.847657-63.375-128.085938-135.335938-128.160157-29.816406-.09375-58.816406 9.75-82.421875 27.96875-21.695312 16.710938-37.875 39.546876-46.449218 65.554688-57.621094 9.429688-99.9023442 59.253906-99.83203175 117.640625 0 .101563 0 .191406.00390625.289063v.277343c-.00390625.125-.0078125.0625-.0078125.1875.0742188 53.175781 43.21875 96.234375 96.394531 96.207031h85.992188v20h-34.191407c-2.074218-.050781-4.082031.746094-5.554687 2.207032-1.472656 1.460937-2.289063 3.460937-2.253906 5.535156v33.746094c-4.6875 1.234375-8.941407 3.738281-12.300781 7.230468-8.269532 8.109376-10.832032 20.402344-6.488282 31.136719 4.339844 10.734375 14.726563 17.792969 26.308594 17.875 11.578125.078125 22.0625-6.832031 26.554688-17.507812 4.488281-10.671875 2.097656-23-6.058594-31.222657h.09375c-3.453125-4-8.109375-6.1875-12.109375-7.511718v-25.488282h33.71875c4.523437-.097656 8.167969-3.734374 8.28125-8.257812v-27.742188h21v66.109376c-13.640625 3.980468-22.277344 17.386718-20.265625 31.453124 2.007812 14.0625 14.054687 24.511719 28.265625 24.511719 14.207031 0 26.253906-10.449219 28.265625-24.511719 2.011718-14.066406-6.625-27.472656-20.265625-31.453124v-66.109376h21v27.742188c.109375 4.523438 3.757812 8.160156 8.28125 8.257812h33.71875v25.488282c-4 1.324218-8.65625 3.511718-12.109375 7.511718h.046875c-11.039063 11.214844-10.90625 29.253907.300781 40.300782 11.207031 11.050781 29.246094 10.929687 40.300781-.269532 11.058594-11.199218 10.949219-29.238281-.238281-40.300781-3.359375-3.5-7.613281-6.003906-12.300781-7.242187v-33.746094c.03125-2.074219-.78125-4.074219-2.253907-5.535156-1.476562-1.460938-3.480468-2.257813-5.554687-2.207032h-34.191406v-20h85.992187c53.171875.027344 96.3125-43.027343 96.390625-96.199218 0-.609375-.082031-1.214844-.25-1.800782-.410156-21.640624-9.195312-42.277343-24.507812-57.574218zm-118.398438 50.089844-8.203125 21.238281c-1.226562 3.160156-4.308594 5.207031-7.699218 5.117187l-8.40625-.246094c-3.128907 4.101563-6.695313 7.847657-10.644532 11.167969l.621094 8.441407c.25 3.382812-1.660156 6.554687-4.769531 7.914062l-20.867188 9.128906c-3.074219 1.34375-6.65625.628906-8.980469-1.792968l-5.878906-6.125c-5.097656.640624-10.25.773437-15.375.398437l-5.476562 6.351563c-2.210938 2.558593-5.789063 3.453124-8.941406 2.238281l-21.238282-8.199219c-3.164062-1.222656-5.214844-4.308594-5.113281-7.703125l.246094-8.40625c-4.101563-3.125-7.847657-6.695313-11.171875-10.640625l-8.4375.621094c-3.386719.253906-6.558594-1.660156-7.917969-4.769532l-9.128906-20.867187c-1.34375-3.074219-.628907-6.660156 1.792969-8.980469l6.125-5.878906c-.640626-5.097656-.773438-10.25-.398438-15.375l-6.351562-5.480469c-2.558594-2.207031-3.453126-5.785156-2.238282-8.9375l8.199219-21.238281c1.21875-3.167969 4.308594-5.222656 7.703125-5.117188l8.40625.246094c3.125-4.101562 6.695312-7.847656 10.640625-11.171875l-.621094-8.4375c-.246093-3.382812 1.664063-6.554687 4.773438-7.914062l20.867187-9.128907c3.070313-1.347656 6.65625-.628906 8.980469 1.789063l5.875 6.128906c5.101563-.640625 10.253906-.773437 15.382813-.398437l5.476562-6.351563c2.210938-2.558593 5.789062-3.453125 8.941406-2.238281l21.238282 8.203125c3.167968 1.21875 5.21875 4.304687 5.117187 7.699219l-.253906 8.398437c4.101562 3.128907 7.847656 6.699219 11.171875 10.644531l8.4375-.621093c3.386718-.25 6.5625 1.664062 7.917968 4.777343l9.128907 20.867188c1.347656 3.070312.628906 6.65625-1.789063 8.980469l-6.128906 5.875c.640625 5.101562.773438 10.253906.398438 15.378906l6.347656 5.480469c2.558594 2.207031 3.453125 5.78125 2.238281 8.933594zm0 0"/></svg>