<svg xmlns="http://www.w3.org/2000/svg" width="132.901" height="132.901" viewBox="0 0 132.901 132.901"><g transform="translate(0 46.723)"><path d="M0,264.276v15.574a14.276,14.276,0,0,0,14.276,14.276h7.787a3.894,3.894,0,0,0,3.894-3.894V250H14.276A14.276,14.276,0,0,0,0,264.276Z" transform="translate(0 -231.83)" fill="rgba(255,255,255,0.03)"/><path d="M210.319,209.851V189.085A9.1,9.1,0,0,0,201.234,180H170.085A9.1,9.1,0,0,0,161,189.085v20.766a9.1,9.1,0,0,0,9.085,9.085h8.973l14.491,12.076a3.894,3.894,0,0,0,6.386-2.991v-9.085h1.3A9.1,9.1,0,0,0,210.319,209.851Zm-19.468-6.489H180.468a3.894,3.894,0,0,1,0-7.787h10.383a3.894,3.894,0,0,1,0,7.787Z" transform="translate(-119.209 -180)" fill="rgba(255,255,255,0.03)"/><path d="M201,459.787a7.787,7.787,0,0,0,7.787,7.787h12.979a7.787,7.787,0,1,0,0-15.574H208.787A7.787,7.787,0,0,0,201,459.787Z" transform="translate(-148.826 -381.397)" fill="rgba(255,255,255,0.03)"/><g transform="translate(87.947 18.17)"><g transform="translate(0 51.914)"><path d="M360.409,450v.779a3.9,3.9,0,0,1-3.894,3.894H338.951a15.5,15.5,0,0,1-.134,7.787h17.7A11.694,11.694,0,0,0,368.2,450.779V450Z" transform="translate(-338.817 -450)" fill="rgba(255,255,255,0.03)"/></g><path d="M423.681,250H412v40.234a3.894,3.894,0,0,0,3.894,3.894h7.787a14.276,14.276,0,0,0,14.276-14.276V264.276A14.276,14.276,0,0,0,423.681,250Z" transform="translate(-393.004 -250)" fill="rgba(255,255,255,0.03)"/></g></g><path d="M135.713,16.422A56.067,56.067,0,0,0,40,56.067v1.038H55.574V56.067a40.493,40.493,0,1,1,80.986,0v1.038h15.574V56.067A55.7,55.7,0,0,0,135.713,16.422Z" transform="translate(-29.617)" fill="rgba(255,255,255,0.03)"/></svg>