<svg xmlns="http://www.w3.org/2000/svg" width="135.373" height="132.901" viewBox="0 0 135.373 132.901"><path d="M57.055,78.69A6.951,6.951,0,1,1,50.1,71.739,6.951,6.951,0,0,1,57.055,78.69Zm28.213-6.95a6.951,6.951,0,1,0,6.951,6.951A6.951,6.951,0,0,0,85.268,71.74Zm50.1,3.076v13.21a12.008,12.008,0,0,1-12.008,12.008H114.65c-8.634,23.974-30.683,38.455-46.964,38.455s-38.33-14.481-46.964-38.455H12.008A12.008,12.008,0,0,1,0,88.025V74.816A12.005,12.005,0,0,1,6.3,64.252c.126-18.754,5.592-33.4,16.27-43.527C33.156,10.681,48.337,5.588,67.686,5.588s34.53,5.093,45.121,15.137c10.678,10.126,16.143,24.773,16.27,43.527A12.006,12.006,0,0,1,135.373,74.816Zm-25.416,3.918c0-3.09-.158-5.993-.392-8.806-5.329-4.876-15-8.576-27.215-9.95a17.707,17.707,0,0,1,3.828,7.3C78.7,61.381,64.019,62.784,52.915,49.6c-.637-.736-1.187-1.44-1.663-2.083l-.017-.021h0c-1.976-2.672-2.649-4.261-2.687-2.5-.326,15.155-11.067,26.969-23,28.636-.075,1.667-.137,3.35-.137,5.105a54.37,54.37,0,0,0,2.824,17.5c6.7,8.082,17.765,10.364,27.558,10.969,1.818-2.892,5.9-4.912,10.648-4.912,6.441,0,11.662,3.706,11.662,8.278s-5.221,8.278-11.662,8.278c-4.954,0-9.176-2.2-10.866-5.289-6.844-.4-14.369-1.565-21.075-4.732,9.431,13.9,24.05,21.251,33.18,21.251C82.033,130.083,109.957,111.959,109.957,78.734Zm11.891-15.927c-.764-32.726-19.444-50.014-54.161-50.014S14.29,30.081,13.525,62.807h4.62c1.689-11.03,5.26-20.1,10.68-27.077C37.464,24.616,50.539,18.98,67.686,18.98s30.222,5.636,38.861,16.751c5.42,6.975,8.991,16.047,10.68,27.077h4.62Z" transform="translate(0 -5.588)" fill="rgba(255,255,255,0.03)"/></svg>