<svg xmlns="http://www.w3.org/2000/svg" width="132.9" height="132.901" viewBox="0 0 132.9 132.901"><path d="M183.8,115.579a16.583,16.583,0,0,0-1.768-4.271,2.374,2.374,0,0,1,.366-2.887l3.8-3.8-3.355-3.355-3.8,3.8a2.374,2.374,0,0,1-2.887.366,16.584,16.584,0,0,0-4.271-1.768,2.373,2.373,0,0,1-1.78-2.3V96h-4.744v5.369a2.373,2.373,0,0,1-1.78,2.3,16.582,16.582,0,0,0-4.271,1.768,2.374,2.374,0,0,1-2.887-.366l-3.8-3.8-3.355,3.355,3.8,3.8a2.374,2.374,0,0,1,.366,2.887,16.582,16.582,0,0,0-1.768,4.271,2.373,2.373,0,0,1-2.3,1.78H144v4.746h5.369a2.373,2.373,0,0,1,2.3,1.78,16.582,16.582,0,0,0,1.768,4.271,2.374,2.374,0,0,1-.366,2.887l-3.8,3.8,3.355,3.355,3.8-3.8a2.376,2.376,0,0,1,2.887-.366,16.583,16.583,0,0,0,4.271,1.768,2.373,2.373,0,0,1,1.78,2.3v5.363h4.746V138.1a2.373,2.373,0,0,1,1.78-2.3,16.582,16.582,0,0,0,4.271-1.768,2.374,2.374,0,0,1,2.887.366l3.8,3.8,3.355-3.355-3.8-3.8a2.376,2.376,0,0,1-.366-2.887,16.584,16.584,0,0,0,1.768-4.271,2.373,2.373,0,0,1,2.3-1.78h5.363v-4.744H186.1a2.373,2.373,0,0,1-2.3-1.78ZM167.732,131.6A11.866,11.866,0,1,1,179.6,119.732,11.867,11.867,0,0,1,167.732,131.6Zm0,0" transform="translate(-101.282 -67.521)" fill="rgba(255,255,255,0.03)"/><path d="M128,434.373a2.373,2.373,0,0,0,2.373,2.373h52.211a2.373,2.373,0,0,0,0-4.746H130.373A2.373,2.373,0,0,0,128,434.373Zm0,0" transform="translate(-90.028 -303.846)" fill="rgba(255,255,255,0.03)"/><path d="M170.843,368l-1.78,14.239h32.595L199.878,368Zm0,0" transform="translate(-118.91 -258.832)" fill="rgba(255,255,255,0.03)"/><path d="M132.9,304H0v7.12a7.12,7.12,0,0,0,7.12,7.12H125.781a7.12,7.12,0,0,0,7.12-7.12Zm-9.493,9.493h-4.746v-4.746h4.746Zm0,0" transform="translate(0 -213.818)" fill="rgba(255,255,255,0.03)"/><path d="M214.239,159.12a7.12,7.12,0,1,1-7.12-7.12A7.12,7.12,0,0,1,214.239,159.12Zm0,0" transform="translate(-140.669 -106.909)" fill="rgba(255,255,255,0.03)"/><path d="M132.9,64H0v66.45H132.9ZM21.359,120.957H9.493v-4.746H21.359Zm0-9.493H9.493v-4.746H21.359Zm0-23.732H9.493V82.986H21.359Zm0-9.493H9.493V73.493H21.359ZM35.6,116.211H26.105v-4.746H35.6ZM29.869,78.239H26.105V73.493h4.746a2.374,2.374,0,0,1,1.678.7l7.12,7.12-3.356,3.356ZM94.929,99.6a4.747,4.747,0,0,1-4.746,4.746H86.571a22.279,22.279,0,0,1-.859,2.072l2.553,2.556a4.745,4.745,0,0,1,0,6.711l-3.356,3.356a4.745,4.745,0,0,1-6.711,0l-2.556-2.553a22.275,22.275,0,0,1-2.072.859v3.612a4.747,4.747,0,0,1-4.746,4.746H64.077a4.747,4.747,0,0,1-4.746-4.746v-3.612a22.278,22.278,0,0,1-2.072-.859L54.7,119.04a4.745,4.745,0,0,1-6.711,0l-3.356-3.356a4.745,4.745,0,0,1,0-6.711l2.553-2.556a22.276,22.276,0,0,1-.859-2.072H42.718A4.747,4.747,0,0,1,37.972,99.6V94.852a4.747,4.747,0,0,1,4.746-4.746H46.33a22.275,22.275,0,0,1,.859-2.072l-2.553-2.556a4.745,4.745,0,0,1,0-6.711l3.356-3.356a4.745,4.745,0,0,1,6.711,0l2.556,2.553a22.274,22.274,0,0,1,2.072-.859V73.493a4.747,4.747,0,0,1,4.746-4.746h4.746a4.747,4.747,0,0,1,4.746,4.746V77.1a22.267,22.267,0,0,1,2.072.859L78.2,75.411a4.745,4.745,0,0,1,6.711,0l3.356,3.356a4.745,4.745,0,0,1,0,6.711l-2.553,2.556a22.278,22.278,0,0,1,.859,2.072h3.612a4.747,4.747,0,0,1,4.746,4.746ZM106.8,116.211H97.3v-4.746H106.8Zm0-37.972h-3.764l-6.424,6.424-3.356-3.356,7.12-7.12a2.373,2.373,0,0,1,1.678-.7H106.8Zm16.613,42.718H111.542v-4.746h11.866Zm0-9.493H111.542v-4.746h11.866Zm0-23.732H111.542V82.986h11.866Zm0-9.493H111.542V73.493h11.866Zm0,0" transform="translate(0 -45.014)" fill="rgba(255,255,255,0.03)"/><path d="M132.9,7.12A7.12,7.12,0,0,0,125.781,0H7.12A7.12,7.12,0,0,0,0,7.12v7.12H132.9ZM14.239,9.493H9.493V4.746h4.746Zm9.493,0H18.986V4.746h4.746Zm9.493,0H28.479V4.746h4.746Zm0,0" fill="rgba(255,255,255,0.03)"/></svg>