<svg height="448pt" viewBox="0 0 448 448" width="448pt" xmlns="http://www.w3.org/2000/svg"><path d="m278.160156 162c-1.304687-5.054688-3.3125-9.902344-5.960937-14.398438-1.855469-3.144531-1.351563-7.148437 1.234375-9.730468l12.796875-12.800782-11.308594-11.308593-12.800781 12.796875c-2.582032 2.585937-6.585938 3.089844-9.730469 1.234375-4.496094-2.648438-9.34375-4.65625-14.398437-5.960938-3.53125-.910156-6-4.097656-6-7.742187v-18.089844h-15.992188v18.097656c0 3.644532-2.46875 6.832032-6 7.742188-5.054688 1.304687-9.902344 3.3125-14.398438 5.960937-3.144531 1.855469-7.148437 1.351563-9.730468-1.234375l-12.800782-12.796875-11.308593 11.308594 12.796875 12.800781c2.585937 2.582032 3.089844 6.585938 1.234375 9.730469-2.648438 4.496094-4.65625 9.34375-5.960938 14.398437-.910156 3.53125-4.097656 6-7.742187 6h-18.089844v16h18.097656c3.644532 0 6.832032 2.46875 7.742188 6 1.304687 5.054688 3.3125 9.902344 5.960937 14.398438 1.855469 3.144531 1.351563 7.148438-1.234375 9.730469l-12.796875 12.800781 11.308594 11.308594 12.800781-12.796875c2.582032-2.582031 6.585938-3.089844 9.730469-1.234375 4.496094 2.648437 9.34375 4.65625 14.398437 5.960937 3.53125.910157 6 4.097657 6 7.746094v18.078125h16v-18.097656c0-3.644532 2.46875-6.832032 6-7.742188 5.054688-1.304687 9.902344-3.3125 14.398438-5.960937 3.144531-1.855469 7.148438-1.351563 9.730469 1.234375l12.800781 12.796875 11.308594-11.308594-12.796875-12.800781c-2.582031-2.582032-3.089844-6.585938-1.234375-9.730469 2.648437-4.496094 4.65625-9.34375 5.960937-14.398437.910157-3.53125 4.097657-6 7.746094-6h18.078125v-15.992188h-18.097656c-3.644532 0-6.832032-2.46875-7.742188-6zm-54.160156 54c-22.089844 0-40-17.910156-40-40s17.910156-40 40-40 40 17.910156 40 40c-.027344 22.082031-17.917969 39.972656-40 40zm0 0"/><path d="m128 440c0 4.417969 3.582031 8 8 8h176c4.417969 0 8-3.582031 8-8s-3.582031-8-8-8h-176c-4.417969 0-8 3.582031-8 8zm0 0"/><path d="m175.0625 368-6 48h109.875l-6-48zm0 0"/><path d="m448 304h-448v24c0 13.253906 10.746094 24 24 24h400c13.253906 0 24-10.746094 24-24zm-32 32h-16v-16h16zm0 0"/><path d="m248 176c0 13.253906-10.746094 24-24 24s-24-10.746094-24-24 10.746094-24 24-24 24 10.746094 24 24zm0 0"/><path d="m448 64h-448v224h448zm-376 192h-40v-16h40zm0-32h-40v-16h40zm0-80h-40v-16h40zm0-32h-40v-16h40zm48 128h-32v-16h32zm-19.3125-128h-12.6875v-16h16c2.121094 0 4.15625.84375 5.65625 2.34375l24 24-11.3125 11.3125zm219.3125 72c0 8.835938-7.164062 16-16 16h-12.175781c-.847657 2.375-1.8125 4.707031-2.894531 6.984375l8.605468 8.617187c6.246094 6.246094 6.246094 16.375 0 22.621094l-11.3125 11.3125c-6.246094 6.246094-16.375 6.246094-22.621094 0l-8.617187-8.605468c-2.277344 1.082031-4.609375 2.046874-6.984375 2.894531v12.175781c0 8.835938-7.164062 16-16 16h-16c-8.835938 0-16-7.164062-16-16v-12.175781c-2.375-.847657-4.707031-1.8125-6.984375-2.894531l-8.617187 8.605468c-6.246094 6.246094-16.375 6.246094-22.621094 0l-11.3125-11.3125c-6.246094-6.246094-6.246094-16.375 0-22.621094l8.605468-8.617187c-1.082031-2.277344-2.046874-4.609375-2.894531-6.984375h-12.175781c-8.835938 0-16-7.164062-16-16v-16c0-8.835938 7.164062-16 16-16h12.175781c.847657-2.375 1.8125-4.707031 2.894531-6.984375l-8.605468-8.617187c-6.246094-6.246094-6.246094-16.375 0-22.621094l11.3125-11.3125c6.246094-6.246094 16.375-6.246094 22.621094 0l8.617187 8.605468c2.277344-1.082031 4.609375-2.046874 6.984375-2.894531v-12.175781c0-8.835938 7.164062-16 16-16h16c8.835938 0 16 7.164062 16 16v12.175781c2.375.847657 4.707031 1.8125 6.984375 2.894531l8.617187-8.605468c6.246094-6.246094 16.375-6.246094 22.621094 0l11.3125 11.3125c6.246094 6.246094 6.246094 16.375 0 22.621094l-8.605468 8.617187c1.082031 2.277344 2.046874 4.609375 2.894531 6.984375h12.175781c8.835938 0 16 7.164062 16 16zm40 56h-32v-16h32zm0-128h-12.6875l-21.65625 21.65625-11.3125-11.3125 24-24c1.5-1.5 3.535156-2.34375 5.65625-2.34375h16zm56 144h-40v-16h40zm0-32h-40v-16h40zm0-80h-40v-16h40zm0-32h-40v-16h40zm0 0"/><path d="m448 24c0-13.253906-10.746094-24-24-24h-400c-13.253906 0-24 10.746094-24 24v24h448zm-400 8h-16v-16h16zm32 0h-16v-16h16zm32 0h-16v-16h16zm0 0"/></svg>